<mxfile host="65bd71144e">
    <diagram id="BxVf7wuEx9oB2frS4R93" name="Page-1">
        <mxGraphModel dx="1223" dy="666" grid="1" gridSize="10" guides="1" tooltips="1" connect="1" arrows="1" fold="1" page="1" pageScale="1" pageWidth="1169" pageHeight="827" background="#ffffff" math="0" shadow="0">
            <root>
                <mxCell id="0"/>
                <mxCell id="1" parent="0"/>
                <mxCell id="121" style="edgeStyle=none;html=1;exitX=0;exitY=0.25;exitDx=0;exitDy=0;entryX=1;entryY=0.25;entryDx=0;entryDy=0;" edge="1" parent="1" source="81" target="79">
                    <mxGeometry relative="1" as="geometry"/>
                </mxCell>
                <mxCell id="119" style="edgeStyle=none;html=1;exitX=0;exitY=0.25;exitDx=0;exitDy=0;entryX=1;entryY=0.25;entryDx=0;entryDy=0;" edge="1" parent="1" source="77" target="75">
                    <mxGeometry relative="1" as="geometry"/>
                </mxCell>
                <mxCell id="37" value="&lt;a href=&quot;https://github.com/shinolab/autd3-backend-cuda&quot;&gt;autd3-backend-cuda&lt;/a&gt; (Rust)" style="swimlane;fontStyle=0;childLayout=stackLayout;horizontal=1;startSize=30;horizontalStack=0;resizeParent=1;resizeParentMax=0;resizeLast=0;collapsible=1;marginBottom=0;whiteSpace=wrap;html=1;" vertex="1" parent="1">
                    <mxGeometry x="170" y="620" width="215" height="55" as="geometry">
                        <mxRectangle x="170" y="670" width="190" height="30" as="alternateBounds"/>
                    </mxGeometry>
                </mxCell>
                <mxCell id="38" value="autd3-backend-cuda" style="text;strokeColor=none;fillColor=none;align=left;verticalAlign=middle;spacingLeft=4;spacingRight=4;overflow=hidden;points=[[0,0.5],[1,0.5]];portConstraint=eastwest;rotatable=0;whiteSpace=wrap;html=1;" vertex="1" parent="37">
                    <mxGeometry y="30" width="215" height="25" as="geometry"/>
                </mxCell>
                <mxCell id="39" value="&lt;a href=&quot;https://github.com/shinolab/autd3-backend-arrayfire&quot;&gt;autd3-backend-arrayfire&lt;/a&gt;&amp;nbsp;(Rust)" style="swimlane;fontStyle=0;childLayout=stackLayout;horizontal=1;startSize=30;horizontalStack=0;resizeParent=1;resizeParentMax=0;resizeLast=0;collapsible=1;marginBottom=0;whiteSpace=wrap;html=1;" vertex="1" parent="1">
                    <mxGeometry x="410" y="620" width="215" height="55" as="geometry">
                        <mxRectangle x="170" y="670" width="190" height="30" as="alternateBounds"/>
                    </mxGeometry>
                </mxCell>
                <mxCell id="40" value="autd3-backend-arrayfire" style="text;strokeColor=none;fillColor=none;align=left;verticalAlign=middle;spacingLeft=4;spacingRight=4;overflow=hidden;points=[[0,0.5],[1,0.5]];portConstraint=eastwest;rotatable=0;whiteSpace=wrap;html=1;" vertex="1" parent="39">
                    <mxGeometry y="30" width="215" height="25" as="geometry"/>
                </mxCell>
                <mxCell id="41" value="autd3-link-ethercrab (Rust)" style="swimlane;fontStyle=0;childLayout=stackLayout;horizontal=1;startSize=30;horizontalStack=0;resizeParent=1;resizeParentMax=0;resizeLast=0;collapsible=1;marginBottom=0;whiteSpace=wrap;html=1;" vertex="1" parent="1">
                    <mxGeometry x="650" y="620" width="215" height="55" as="geometry">
                        <mxRectangle x="170" y="670" width="190" height="30" as="alternateBounds"/>
                    </mxGeometry>
                </mxCell>
                <mxCell id="42" value="autd3-link-ethercrab" style="text;strokeColor=none;fillColor=none;align=left;verticalAlign=middle;spacingLeft=4;spacingRight=4;overflow=hidden;points=[[0,0.5],[1,0.5]];portConstraint=eastwest;rotatable=0;whiteSpace=wrap;html=1;" vertex="1" parent="41">
                    <mxGeometry y="30" width="215" height="25" as="geometry"/>
                </mxCell>
                <mxCell id="87" value="" style="group" vertex="1" connectable="0" parent="1">
                    <mxGeometry x="440" y="236" width="215" height="316" as="geometry"/>
                </mxCell>
                <mxCell id="43" value="&lt;a href=&quot;https://github.com/shinolab/autd3-capi&quot;&gt;autd3-capi&lt;/a&gt; (Rust C ABI)" style="swimlane;fontStyle=0;childLayout=stackLayout;horizontal=1;startSize=30;horizontalStack=0;resizeParent=1;resizeParentMax=0;resizeLast=0;collapsible=1;marginBottom=0;whiteSpace=wrap;html=1;spacing=2;" vertex="1" parent="87">
                    <mxGeometry width="215" height="180" as="geometry">
                        <mxRectangle x="170" y="340" width="70" height="30" as="alternateBounds"/>
                    </mxGeometry>
                </mxCell>
                <mxCell id="45" value="(autd3capi-driver)" style="text;strokeColor=none;fillColor=none;align=left;verticalAlign=middle;spacingLeft=4;spacingRight=4;overflow=hidden;points=[[0,0.5],[1,0.5]];portConstraint=eastwest;rotatable=0;whiteSpace=wrap;html=1;" vertex="1" parent="43">
                    <mxGeometry y="30" width="215" height="25" as="geometry"/>
                </mxCell>
                <mxCell id="46" value="autd3capi" style="text;strokeColor=none;fillColor=none;align=left;verticalAlign=middle;spacingLeft=4;spacingRight=4;overflow=hidden;points=[[0,0.5],[1,0.5]];portConstraint=eastwest;rotatable=0;whiteSpace=wrap;html=1;" vertex="1" parent="43">
                    <mxGeometry y="55" width="215" height="25" as="geometry"/>
                </mxCell>
                <mxCell id="47" value="autd3capi-link-twincat" style="text;strokeColor=none;fillColor=none;align=left;verticalAlign=middle;spacingLeft=4;spacingRight=4;overflow=hidden;points=[[0,0.5],[1,0.5]];portConstraint=eastwest;rotatable=0;whiteSpace=wrap;html=1;" vertex="1" parent="43">
                    <mxGeometry y="80" width="215" height="25" as="geometry"/>
                </mxCell>
                <mxCell id="48" value="autd3capi-link-simulator" style="text;strokeColor=none;fillColor=none;align=left;verticalAlign=middle;spacingLeft=4;spacingRight=4;overflow=hidden;points=[[0,0.5],[1,0.5]];portConstraint=eastwest;rotatable=0;whiteSpace=wrap;html=1;" vertex="1" parent="43">
                    <mxGeometry y="105" width="215" height="25" as="geometry"/>
                </mxCell>
                <mxCell id="49" value="&lt;span style=&quot;color: rgb(0, 0, 0);&quot;&gt;autd3capi-gain-holo&lt;/span&gt;" style="text;strokeColor=none;fillColor=none;align=left;verticalAlign=middle;spacingLeft=4;spacingRight=4;overflow=hidden;points=[[0,0.5],[1,0.5]];portConstraint=eastwest;rotatable=0;whiteSpace=wrap;html=1;" vertex="1" parent="43">
                    <mxGeometry y="130" width="215" height="25" as="geometry"/>
                </mxCell>
                <mxCell id="50" value="&lt;span style=&quot;color: rgb(0, 0, 0);&quot;&gt;autd3capi-modulation-audio-file&lt;/span&gt;" style="text;strokeColor=none;fillColor=none;align=left;verticalAlign=middle;spacingLeft=4;spacingRight=4;overflow=hidden;points=[[0,0.5],[1,0.5]];portConstraint=eastwest;rotatable=0;whiteSpace=wrap;html=1;" vertex="1" parent="43">
                    <mxGeometry y="155" width="215" height="25" as="geometry"/>
                </mxCell>
                <mxCell id="54" value="&lt;a href=&quot;https://github.com/shinolab/autd3-capi-link-soem&quot;&gt;autd3capi-link-soem&lt;/a&gt;&amp;nbsp;&lt;span style=&quot;color: rgb(0, 0, 0);&quot;&gt;(Rust C ABI)&lt;/span&gt;" style="swimlane;fontStyle=0;childLayout=stackLayout;horizontal=1;startSize=30;horizontalStack=0;resizeParent=1;resizeParentMax=0;resizeLast=0;collapsible=1;marginBottom=0;whiteSpace=wrap;html=1;" vertex="1" parent="87">
                    <mxGeometry y="190" width="215" height="55" as="geometry">
                        <mxRectangle x="170" y="530" width="190" height="30" as="alternateBounds"/>
                    </mxGeometry>
                </mxCell>
                <mxCell id="55" value="autd3capi-link-soem" style="text;strokeColor=none;fillColor=none;align=left;verticalAlign=middle;spacingLeft=4;spacingRight=4;overflow=hidden;points=[[0,0.5],[1,0.5]];portConstraint=eastwest;rotatable=0;whiteSpace=wrap;html=1;" vertex="1" parent="54">
                    <mxGeometry y="30" width="215" height="25" as="geometry"/>
                </mxCell>
                <mxCell id="56" value="&lt;a href=&quot;https://github.com/shinolab/autd3-capi-emulator&quot;&gt;autd3capi-emulator&lt;/a&gt;&amp;nbsp;&lt;span style=&quot;color: rgb(0, 0, 0);&quot;&gt;(Rust C ABI)&lt;/span&gt;" style="swimlane;fontStyle=0;childLayout=stackLayout;horizontal=1;startSize=30;horizontalStack=0;resizeParent=1;resizeParentMax=0;resizeLast=0;collapsible=1;marginBottom=0;whiteSpace=wrap;html=1;" vertex="1" parent="87">
                    <mxGeometry y="260" width="215" height="55" as="geometry">
                        <mxRectangle x="170" y="600" width="190" height="30" as="alternateBounds"/>
                    </mxGeometry>
                </mxCell>
                <mxCell id="57" value="autd3capi-emulator" style="text;strokeColor=none;fillColor=none;align=left;verticalAlign=middle;spacingLeft=4;spacingRight=4;overflow=hidden;points=[[0,0.5],[1,0.5]];portConstraint=eastwest;rotatable=0;whiteSpace=wrap;html=1;" vertex="1" parent="56">
                    <mxGeometry y="30" width="215" height="25" as="geometry"/>
                </mxCell>
                <mxCell id="88" value="" style="group" vertex="1" connectable="0" parent="1">
                    <mxGeometry x="170" y="136" width="215" height="415" as="geometry"/>
                </mxCell>
                <mxCell id="4" value="&lt;a href=&quot;https://github.com/shinolab/autd3-rs&quot;&gt;autd3-rs&lt;/a&gt; (Rust)" style="swimlane;fontStyle=0;childLayout=stackLayout;horizontal=1;startSize=30;horizontalStack=0;resizeParent=1;resizeParentMax=0;resizeLast=0;collapsible=1;marginBottom=0;whiteSpace=wrap;html=1;spacing=2;" vertex="1" parent="88">
                    <mxGeometry width="215" height="280" as="geometry">
                        <mxRectangle x="170" y="340" width="70" height="30" as="alternateBounds"/>
                    </mxGeometry>
                </mxCell>
                <mxCell id="6" value="autd3-core" style="text;strokeColor=none;fillColor=none;align=left;verticalAlign=middle;spacingLeft=4;spacingRight=4;overflow=hidden;points=[[0,0.5],[1,0.5]];portConstraint=eastwest;rotatable=0;whiteSpace=wrap;html=1;" vertex="1" parent="4">
                    <mxGeometry y="30" width="215" height="25" as="geometry"/>
                </mxCell>
                <mxCell id="7" value="autd3-driver" style="text;strokeColor=none;fillColor=none;align=left;verticalAlign=middle;spacingLeft=4;spacingRight=4;overflow=hidden;points=[[0,0.5],[1,0.5]];portConstraint=eastwest;rotatable=0;whiteSpace=wrap;html=1;" vertex="1" parent="4">
                    <mxGeometry y="55" width="215" height="25" as="geometry"/>
                </mxCell>
                <mxCell id="14" value="autd3-derive" style="text;strokeColor=none;fillColor=none;align=left;verticalAlign=middle;spacingLeft=4;spacingRight=4;overflow=hidden;points=[[0,0.5],[1,0.5]];portConstraint=eastwest;rotatable=0;whiteSpace=wrap;html=1;" vertex="1" parent="4">
                    <mxGeometry y="80" width="215" height="25" as="geometry"/>
                </mxCell>
                <mxCell id="10" value="autd3-firmware-emulator" style="text;strokeColor=none;fillColor=none;align=left;verticalAlign=middle;spacingLeft=4;spacingRight=4;overflow=hidden;points=[[0,0.5],[1,0.5]];portConstraint=eastwest;rotatable=0;whiteSpace=wrap;html=1;" vertex="1" parent="4">
                    <mxGeometry y="105" width="215" height="25" as="geometry"/>
                </mxCell>
                <mxCell id="16" value="autd3-protobuf" style="text;strokeColor=none;fillColor=none;align=left;verticalAlign=middle;spacingLeft=4;spacingRight=4;overflow=hidden;points=[[0,0.5],[1,0.5]];portConstraint=eastwest;rotatable=0;whiteSpace=wrap;html=1;" vertex="1" parent="4">
                    <mxGeometry y="130" width="215" height="25" as="geometry"/>
                </mxCell>
                <mxCell id="13" value="&lt;span style=&quot;color: rgb(0, 0, 0);&quot;&gt;autd3&lt;/span&gt;" style="text;strokeColor=none;fillColor=none;align=left;verticalAlign=middle;spacingLeft=4;spacingRight=4;overflow=hidden;points=[[0,0.5],[1,0.5]];portConstraint=eastwest;rotatable=0;whiteSpace=wrap;html=1;" vertex="1" parent="4">
                    <mxGeometry y="155" width="215" height="25" as="geometry"/>
                </mxCell>
                <mxCell id="12" value="autd3-link-twincat" style="text;strokeColor=none;fillColor=none;align=left;verticalAlign=middle;spacingLeft=4;spacingRight=4;overflow=hidden;points=[[0,0.5],[1,0.5]];portConstraint=eastwest;rotatable=0;whiteSpace=wrap;html=1;" vertex="1" parent="4">
                    <mxGeometry y="180" width="215" height="25" as="geometry"/>
                </mxCell>
                <mxCell id="11" value="autd3-link-simulator" style="text;strokeColor=none;fillColor=none;align=left;verticalAlign=middle;spacingLeft=4;spacingRight=4;overflow=hidden;points=[[0,0.5],[1,0.5]];portConstraint=eastwest;rotatable=0;whiteSpace=wrap;html=1;" vertex="1" parent="4">
                    <mxGeometry y="205" width="215" height="25" as="geometry"/>
                </mxCell>
                <mxCell id="9" value="autd3-gain-holo" style="text;strokeColor=none;fillColor=none;align=left;verticalAlign=middle;spacingLeft=4;spacingRight=4;overflow=hidden;points=[[0,0.5],[1,0.5]];portConstraint=eastwest;rotatable=0;whiteSpace=wrap;html=1;" vertex="1" parent="4">
                    <mxGeometry y="230" width="215" height="25" as="geometry"/>
                </mxCell>
                <mxCell id="8" value="autd3-modulation-audio-file" style="text;strokeColor=none;fillColor=none;align=left;verticalAlign=middle;spacingLeft=4;spacingRight=4;overflow=hidden;points=[[0,0.5],[1,0.5]];portConstraint=eastwest;rotatable=0;whiteSpace=wrap;html=1;" vertex="1" parent="4">
                    <mxGeometry y="255" width="215" height="25" as="geometry"/>
                </mxCell>
                <mxCell id="30" value="&lt;a href=&quot;https://github.com/shinolab/autd3-link-soem&quot;&gt;autd3-link-soem&lt;/a&gt; (Rust)" style="swimlane;fontStyle=0;childLayout=stackLayout;horizontal=1;startSize=30;horizontalStack=0;resizeParent=1;resizeParentMax=0;resizeLast=0;collapsible=1;marginBottom=0;whiteSpace=wrap;html=1;" vertex="1" parent="88">
                    <mxGeometry y="290" width="215" height="55" as="geometry">
                        <mxRectangle x="170" y="530" width="190" height="30" as="alternateBounds"/>
                    </mxGeometry>
                </mxCell>
                <mxCell id="33" value="autd3-link-soem" style="text;strokeColor=none;fillColor=none;align=left;verticalAlign=middle;spacingLeft=4;spacingRight=4;overflow=hidden;points=[[0,0.5],[1,0.5]];portConstraint=eastwest;rotatable=0;whiteSpace=wrap;html=1;" vertex="1" parent="30">
                    <mxGeometry y="30" width="215" height="25" as="geometry"/>
                </mxCell>
                <mxCell id="35" value="&lt;a href=&quot;https://github.com/shinolab/autd3-emulator&quot;&gt;autd3-emulator&lt;/a&gt;&amp;nbsp;(Rust)" style="swimlane;fontStyle=0;childLayout=stackLayout;horizontal=1;startSize=30;horizontalStack=0;resizeParent=1;resizeParentMax=0;resizeLast=0;collapsible=1;marginBottom=0;whiteSpace=wrap;html=1;" vertex="1" parent="88">
                    <mxGeometry y="360" width="215" height="55" as="geometry">
                        <mxRectangle x="170" y="600" width="190" height="30" as="alternateBounds"/>
                    </mxGeometry>
                </mxCell>
                <mxCell id="36" value="autd3-emulator" style="text;strokeColor=none;fillColor=none;align=left;verticalAlign=middle;spacingLeft=4;spacingRight=4;overflow=hidden;points=[[0,0.5],[1,0.5]];portConstraint=eastwest;rotatable=0;whiteSpace=wrap;html=1;" vertex="1" parent="35">
                    <mxGeometry y="30" width="215" height="25" as="geometry"/>
                </mxCell>
                <mxCell id="95" value="" style="endArrow=classic;html=1;exitX=0.001;exitY=0.091;exitDx=0;exitDy=0;exitPerimeter=0;entryX=0.999;entryY=0.051;entryDx=0;entryDy=0;entryPerimeter=0;" edge="1" parent="1" source="43" target="4">
                    <mxGeometry width="50" height="50" relative="1" as="geometry">
                        <mxPoint x="380" y="310" as="sourcePoint"/>
                        <mxPoint x="430" y="260" as="targetPoint"/>
                        <Array as="points">
                            <mxPoint x="410" y="252"/>
                            <mxPoint x="410" y="150"/>
                        </Array>
                    </mxGeometry>
                </mxCell>
                <mxCell id="96" value="" style="endArrow=classic;html=1;exitX=0;exitY=0.25;exitDx=0;exitDy=0;entryX=1;entryY=0.25;entryDx=0;entryDy=0;" edge="1" parent="1" source="54" target="30">
                    <mxGeometry width="50" height="50" relative="1" as="geometry">
                        <mxPoint x="400" y="350" as="sourcePoint"/>
                        <mxPoint x="450" y="300" as="targetPoint"/>
                    </mxGeometry>
                </mxCell>
                <mxCell id="97" value="" style="endArrow=classic;html=1;exitX=0;exitY=0.25;exitDx=0;exitDy=0;entryX=1;entryY=0.25;entryDx=0;entryDy=0;" edge="1" parent="1" source="56" target="35">
                    <mxGeometry width="50" height="50" relative="1" as="geometry">
                        <mxPoint x="470" y="440" as="sourcePoint"/>
                        <mxPoint x="520" y="390" as="targetPoint"/>
                    </mxGeometry>
                </mxCell>
                <mxCell id="98" value="" style="endArrow=classic;html=1;exitX=0;exitY=0.25;exitDx=0;exitDy=0;entryX=1;entryY=0.5;entryDx=0;entryDy=0;" edge="1" parent="1" source="71">
                    <mxGeometry width="50" height="50" relative="1" as="geometry">
                        <mxPoint x="620" y="410" as="sourcePoint"/>
                        <mxPoint x="655" y="252" as="targetPoint"/>
                        <Array as="points">
                            <mxPoint x="670" y="150"/>
                            <mxPoint x="670" y="252"/>
                        </Array>
                    </mxGeometry>
                </mxCell>
                <mxCell id="117" style="edgeStyle=none;html=1;exitX=0;exitY=0.25;exitDx=0;exitDy=0;entryX=1;entryY=0.25;entryDx=0;entryDy=0;jumpStyle=arc;" edge="1" parent="1" source="69" target="54">
                    <mxGeometry relative="1" as="geometry">
                        <Array as="points">
                            <mxPoint x="950" y="150"/>
                            <mxPoint x="950" y="440"/>
                        </Array>
                    </mxGeometry>
                </mxCell>
                <mxCell id="118" style="edgeStyle=none;html=1;exitX=0;exitY=0.25;exitDx=0;exitDy=0;entryX=1;entryY=0.25;entryDx=0;entryDy=0;" edge="1" parent="1" source="69" target="71">
                    <mxGeometry relative="1" as="geometry"/>
                </mxCell>
                <mxCell id="69" value="&lt;a href=&quot;https://github.com/shinolab/pyautd3_link_soem/&quot;&gt;pyautd3_link_soem&lt;/a&gt;&amp;nbsp;&lt;span style=&quot;color: rgb(0, 0, 0);&quot;&gt;(Python)&lt;/span&gt;" style="swimlane;fontStyle=0;childLayout=stackLayout;horizontal=1;startSize=30;horizontalStack=0;resizeParent=1;resizeParentMax=0;resizeLast=0;collapsible=1;marginBottom=0;whiteSpace=wrap;html=1;" vertex="1" parent="1">
                    <mxGeometry x="990" y="136" width="215" height="55" as="geometry">
                        <mxRectangle x="170" y="530" width="190" height="30" as="alternateBounds"/>
                    </mxGeometry>
                </mxCell>
                <mxCell id="70" value="pyautd3-link-soem" style="text;strokeColor=none;fillColor=none;align=left;verticalAlign=middle;spacingLeft=4;spacingRight=4;overflow=hidden;points=[[0,0.5],[1,0.5]];portConstraint=eastwest;rotatable=0;whiteSpace=wrap;html=1;" vertex="1" parent="69">
                    <mxGeometry y="30" width="215" height="25" as="geometry"/>
                </mxCell>
                <mxCell id="85" value="" style="group" vertex="1" connectable="0" parent="1">
                    <mxGeometry x="990" y="246" width="215" height="125" as="geometry"/>
                </mxCell>
                <mxCell id="81" value="&lt;span style=&quot;color: rgb(0, 0, 0);&quot;&gt;&lt;a href=&quot;https://github.com/shinolab/autd3-cpp-link-soem&quot;&gt;autd3-cpp-link-soem&lt;/a&gt; (C++)&lt;/span&gt;" style="swimlane;fontStyle=0;childLayout=stackLayout;horizontal=1;startSize=30;horizontalStack=0;resizeParent=1;resizeParentMax=0;resizeLast=0;collapsible=1;marginBottom=0;whiteSpace=wrap;html=1;" vertex="1" parent="85">
                    <mxGeometry y="70" width="215" height="55" as="geometry">
                        <mxRectangle x="170" y="530" width="190" height="30" as="alternateBounds"/>
                    </mxGeometry>
                </mxCell>
                <mxCell id="82" value="&lt;span style=&quot;color: rgb(0, 0, 0); text-align: center;&quot;&gt;autd3-cpp-link-soem&lt;/span&gt;" style="text;strokeColor=none;fillColor=none;align=left;verticalAlign=middle;spacingLeft=4;spacingRight=4;overflow=hidden;points=[[0,0.5],[1,0.5]];portConstraint=eastwest;rotatable=0;whiteSpace=wrap;html=1;" vertex="1" parent="81">
                    <mxGeometry y="30" width="215" height="25" as="geometry"/>
                </mxCell>
                <mxCell id="71" value="&lt;a href=&quot;https://github.com/shinolab/pyautd3/&quot;&gt;pyautd3&lt;/a&gt;&amp;nbsp;&lt;span style=&quot;color: rgb(0, 0, 0);&quot;&gt;(Python)&lt;/span&gt;" style="swimlane;fontStyle=0;childLayout=stackLayout;horizontal=1;startSize=30;horizontalStack=0;resizeParent=1;resizeParentMax=0;resizeLast=0;collapsible=1;marginBottom=0;whiteSpace=wrap;html=1;" vertex="1" parent="1">
                    <mxGeometry x="710" y="136" width="215" height="55" as="geometry">
                        <mxRectangle x="170" y="530" width="190" height="30" as="alternateBounds"/>
                    </mxGeometry>
                </mxCell>
                <mxCell id="72" value="pyautd3" style="text;strokeColor=none;fillColor=none;align=left;verticalAlign=middle;spacingLeft=4;spacingRight=4;overflow=hidden;points=[[0,0.5],[1,0.5]];portConstraint=eastwest;rotatable=0;whiteSpace=wrap;html=1;" vertex="1" parent="71">
                    <mxGeometry y="30" width="215" height="25" as="geometry"/>
                </mxCell>
                <mxCell id="122" style="edgeStyle=none;html=1;exitX=0;exitY=0.25;exitDx=0;exitDy=0;entryX=1;entryY=0.25;entryDx=0;entryDy=0;" edge="1" parent="1" source="73" target="56">
                    <mxGeometry relative="1" as="geometry"/>
                </mxCell>
                <mxCell id="73" value="&lt;a href=&quot;https://github.com/shinolab/pyautd3_emulator/&quot;&gt;pyautd3_emulator&lt;/a&gt;&amp;nbsp;&lt;span style=&quot;color: rgb(0, 0, 0);&quot;&gt;(Python)&lt;/span&gt;" style="swimlane;fontStyle=0;childLayout=stackLayout;horizontal=1;startSize=30;horizontalStack=0;resizeParent=1;resizeParentMax=0;resizeLast=0;collapsible=1;marginBottom=0;whiteSpace=wrap;html=1;" vertex="1" parent="1">
                    <mxGeometry x="710" y="496" width="215" height="55" as="geometry">
                        <mxRectangle x="170" y="530" width="190" height="30" as="alternateBounds"/>
                    </mxGeometry>
                </mxCell>
                <mxCell id="74" value="pyautd3-emulator" style="text;strokeColor=none;fillColor=none;align=left;verticalAlign=middle;spacingLeft=4;spacingRight=4;overflow=hidden;points=[[0,0.5],[1,0.5]];portConstraint=eastwest;rotatable=0;whiteSpace=wrap;html=1;" vertex="1" parent="73">
                    <mxGeometry y="30" width="215" height="25" as="geometry"/>
                </mxCell>
                <mxCell id="75" value="&lt;span style=&quot;color: rgb(0, 0, 0);&quot;&gt;&lt;a href=&quot;https://github.com/shinolab/AUTD3Sharp&quot;&gt;AUTD3Sharp&lt;/a&gt; (.NET)&lt;/span&gt;" style="swimlane;fontStyle=0;childLayout=stackLayout;horizontal=1;startSize=30;horizontalStack=0;resizeParent=1;resizeParentMax=0;resizeLast=0;collapsible=1;marginBottom=0;whiteSpace=wrap;html=1;" vertex="1" parent="1">
                    <mxGeometry x="710" y="220" width="215" height="55" as="geometry">
                        <mxRectangle x="170" y="530" width="190" height="30" as="alternateBounds"/>
                    </mxGeometry>
                </mxCell>
                <mxCell id="76" value="&lt;span style=&quot;color: rgb(0, 0, 0); text-align: center;&quot;&gt;AUTD3Sharp&lt;/span&gt;" style="text;strokeColor=none;fillColor=none;align=left;verticalAlign=middle;spacingLeft=4;spacingRight=4;overflow=hidden;points=[[0,0.5],[1,0.5]];portConstraint=eastwest;rotatable=0;whiteSpace=wrap;html=1;" vertex="1" parent="75">
                    <mxGeometry y="30" width="215" height="25" as="geometry"/>
                </mxCell>
                <mxCell id="116" style="edgeStyle=none;html=1;exitX=0;exitY=0.25;exitDx=0;exitDy=0;entryX=1;entryY=0.25;entryDx=0;entryDy=0;jumpStyle=arc;" edge="1" parent="1" source="77" target="54">
                    <mxGeometry relative="1" as="geometry">
                        <Array as="points">
                            <mxPoint x="960" y="234"/>
                            <mxPoint x="960" y="440"/>
                        </Array>
                    </mxGeometry>
                </mxCell>
                <mxCell id="77" value="&lt;span style=&quot;color: rgb(0, 0, 0);&quot;&gt;&lt;a href=&quot;https://github.com/shinolab/AUTD3Sharp.Link.SOEM&quot;&gt;AUTD3Sharp.Link.SOEM&lt;/a&gt; (.NET)&lt;/span&gt;" style="swimlane;fontStyle=0;childLayout=stackLayout;horizontal=1;startSize=30;horizontalStack=0;resizeParent=1;resizeParentMax=0;resizeLast=0;collapsible=1;marginBottom=0;whiteSpace=wrap;html=1;" vertex="1" parent="1">
                    <mxGeometry x="990" y="220" width="215" height="55" as="geometry">
                        <mxRectangle x="170" y="530" width="190" height="30" as="alternateBounds"/>
                    </mxGeometry>
                </mxCell>
                <mxCell id="78" value="&lt;span style=&quot;color: rgb(0, 0, 0); text-align: center;&quot;&gt;AUTD3Sharp.Link.SOEM&lt;/span&gt;" style="text;strokeColor=none;fillColor=none;align=left;verticalAlign=middle;spacingLeft=4;spacingRight=4;overflow=hidden;points=[[0,0.5],[1,0.5]];portConstraint=eastwest;rotatable=0;whiteSpace=wrap;html=1;" vertex="1" parent="77">
                    <mxGeometry y="30" width="215" height="25" as="geometry"/>
                </mxCell>
                <mxCell id="79" value="&lt;span style=&quot;color: rgb(0, 0, 0);&quot;&gt;&lt;a href=&quot;https://github.com/shinolab/autd3-cpp&quot;&gt;autd3-cpp&lt;/a&gt; (C++)&lt;/span&gt;" style="swimlane;fontStyle=0;childLayout=stackLayout;horizontal=1;startSize=30;horizontalStack=0;resizeParent=1;resizeParentMax=0;resizeLast=0;collapsible=1;marginBottom=0;whiteSpace=wrap;html=1;" vertex="1" parent="1">
                    <mxGeometry x="710" y="316" width="215" height="55" as="geometry">
                        <mxRectangle x="170" y="530" width="190" height="30" as="alternateBounds"/>
                    </mxGeometry>
                </mxCell>
                <mxCell id="80" value="&lt;span style=&quot;color: rgb(0, 0, 0); text-align: center;&quot;&gt;autd3-cpp&lt;/span&gt;" style="text;strokeColor=none;fillColor=none;align=left;verticalAlign=middle;spacingLeft=4;spacingRight=4;overflow=hidden;points=[[0,0.5],[1,0.5]];portConstraint=eastwest;rotatable=0;whiteSpace=wrap;html=1;" vertex="1" parent="79">
                    <mxGeometry y="30" width="215" height="25" as="geometry"/>
                </mxCell>
                <mxCell id="112" style="edgeStyle=none;html=1;exitX=0;exitY=0.25;exitDx=0;exitDy=0;entryX=1;entryY=0.5;entryDx=0;entryDy=0;" edge="1" parent="1" source="75">
                    <mxGeometry relative="1" as="geometry">
                        <mxPoint x="655" y="252" as="targetPoint"/>
                        <Array as="points">
                            <mxPoint x="680" y="234"/>
                            <mxPoint x="680" y="252"/>
                        </Array>
                    </mxGeometry>
                </mxCell>
                <mxCell id="113" style="edgeStyle=none;html=1;exitX=0;exitY=0.25;exitDx=0;exitDy=0;entryX=1;entryY=0.5;entryDx=0;entryDy=0;" edge="1" parent="1" source="79">
                    <mxGeometry relative="1" as="geometry">
                        <mxPoint x="655" y="252" as="targetPoint"/>
                        <Array as="points">
                            <mxPoint x="690" y="330"/>
                            <mxPoint x="690" y="252"/>
                        </Array>
                    </mxGeometry>
                </mxCell>
                <mxCell id="120" style="edgeStyle=none;html=1;exitX=0;exitY=0.25;exitDx=0;exitDy=0;entryX=1;entryY=0.25;entryDx=0;entryDy=0;" edge="1" parent="1" source="81" target="54">
                    <mxGeometry relative="1" as="geometry">
                        <Array as="points">
                            <mxPoint x="970" y="330"/>
                            <mxPoint x="970" y="440"/>
                        </Array>
                    </mxGeometry>
                </mxCell>
            </root>
        </mxGraphModel>
    </diagram>
    <diagram id="p2apGyqmNoXt_AvjE2iF" name="Page-2">
        <mxGraphModel dx="1223" dy="851" grid="1" gridSize="10" guides="1" tooltips="1" connect="1" arrows="1" fold="1" page="1" pageScale="1" pageWidth="1169" pageHeight="827" math="0" shadow="0">
            <root>
                <mxCell id="0"/>
                <mxCell id="1" parent="0"/>
            </root>
        </mxGraphModel>
    </diagram>
</mxfile>